<?xml version="1.0" standalone="no"?>
<!DOCTYPE svg PUBLIC "-//W3C//DTD SVG 20010904//EN"
 "http://www.w3.org/TR/2001/REC-SVG-20010904/DTD/svg10.dtd">
<svg version="1.0" xmlns="http://www.w3.org/2000/svg"
 width="512.000000pt" height="512.000000pt" viewBox="0 0 512.000000 512.000000"
 preserveAspectRatio="xMidYMid meet">
<metadata>
Created by potrace 1.11, written by Peter Selinger 2001-2013
</metadata>
<g transform="translate(0.000000,512.000000) scale(0.100000,-0.100000)"
fill="#000000" stroke="none">
<path d="M2463 5099 c-57 -22 -107 -68 -174 -164 -24 -33 -101 -140 -172 -238
-128 -177 -129 -178 -145 -155 -100 147 -296 177 -423 65 -14 -13 -106 -134
-203 -270 -98 -136 -182 -247 -188 -247 -6 0 -19 11 -29 24 -26 33 -114 75
-166 80 -110 10 -225 -50 -273 -144 -53 -105 -201 -599 -234 -785 -3 -16 -8
-41 -10 -55 -50 -272 -61 -389 -61 -640 0 -201 6 -287 30 -425 121 -702 579
-1168 1325 -1349 58 -14 116 -26 130 -28 14 -2 30 -6 35 -10 7 -4 11 -87 10
-240 -1 -141 4 -253 11 -285 21 -97 93 -178 192 -216 37 -15 92 -17 460 -14
415 2 417 2 462 25 76 40 132 103 158 181 8 21 12 124 12 291 l1 257 127 28
c199 44 471 140 554 197 14 10 29 18 33 18 4 0 46 25 93 56 235 153 400 334
526 575 103 200 170 440 194 693 14 156 8 453 -13 616 -2 19 -7 58 -11 85 -5
43 -19 123 -39 230 -38 199 -175 662 -231 782 -66 138 -242 199 -372 128 -28
-15 -63 -40 -78 -56 l-27 -28 -98 137 c-55 75 -129 180 -166 232 -134 187
-184 223 -308 223 -89 0 -156 -31 -215 -102 l-42 -50 -170 237 c-188 262 -219
298 -281 331 -59 32 -155 36 -224 10z m312 -586 c96 -133 175 -245 175 -249 0
-11 -111 -164 -119 -164 -4 0 -26 21 -48 48 -22 26 -64 61 -94 77 -45 24 -66
29 -124 29 -91 1 -145 -24 -217 -98 l-55 -57 -56 76 c-32 42 -57 80 -57 86 0
5 23 42 52 81 67 95 252 350 297 411 l36 49 17 -24 c10 -13 96 -132 193 -265z
m-868 -393 c93 -129 172 -241 177 -248 5 -8 -13 -40 -51 -90 -32 -42 -60 -79
-63 -82 -6 -6 -77 -103 -100 -136 -96 -142 -133 -195 -140 -199 -4 -2 -18 11
-31 29 -25 36 -223 288 -243 309 -6 7 -32 39 -58 73 l-46 60 81 112 c45 61
131 179 191 262 60 83 110 149 111 148 1 -2 79 -109 172 -238z m1527 187 c159
-217 329 -455 333 -464 4 -10 -223 -312 -257 -343 -3 -3 -25 -31 -48 -62 -69
-91 -61 -92 -144 29 -40 59 -121 172 -180 250 l-106 141 181 251 c149 205 184
248 193 236 6 -9 19 -25 28 -38z m-787 -459 c503 -587 829 -1160 880 -1553 29
-224 -20 -526 -120 -734 -117 -241 -324 -428 -558 -505 -100 -32 -124 -36
-247 -43 -415 -23 -783 239 -936 666 -74 207 -99 475 -62 673 62 332 290 759
657 1234 111 143 289 354 299 354 4 0 43 -42 87 -92z m-1417 -342 c265 -335
330 -419 330 -427 0 -4 -22 -52 -49 -106 -91 -184 -163 -376 -190 -513 -6 -30
-14 -66 -16 -80 -19 -88 -23 -241 -11 -384 3 -49 8 -92 10 -95 2 -3 6 -28 10
-56 22 -188 130 -448 255 -620 33 -44 58 -82 56 -83 -2 -2 -18 3 -37 11 -18 8
-73 32 -122 53 -394 170 -655 498 -746 937 -33 161 -41 250 -40 432 1 158 5
218 26 375 3 19 7 51 9 70 3 19 7 46 10 60 2 14 7 39 10 55 25 156 134 548
196 713 10 27 -14 55 299 -342z m2989 276 c50 -135 139 -459 166 -600 20 -105
36 -206 41 -257 3 -33 10 -89 14 -125 9 -71 6 -441 -4 -505 -3 -22 -8 -56 -11
-75 -12 -80 -59 -249 -96 -338 -110 -270 -284 -466 -544 -615 -77 -45 -263
-127 -286 -127 -6 0 -1 12 10 28 221 286 324 598 325 982 0 82 -9 204 -18 245
-52 226 -123 422 -219 603 -42 80 -42 79 9 139 11 12 55 67 99 123 44 56 163
206 264 334 101 127 190 241 199 254 8 12 16 21 18 20 1 -2 17 -41 33 -86z
m-1649 -3072 c113 0 235 2 273 6 51 4 67 2 68 -8 1 -17 1 -346 0 -381 l-1 -27
-347 2 -348 3 0 195 c-1 107 1 201 3 207 3 9 24 11 76 8 39 -3 163 -5 276 -5z"/>
</g>
</svg>
